<svg width="18" height="14" viewBox="0 0 18 14" fill="none" xmlns="http://www.w3.org/2000/svg">
<path d="M2.18182 0C1.60316 0 1.04821 0.229869 0.63904 0.63904C0.229869 1.04821 0 1.60316 0 2.18182V10.9091C0 11.4877 0.229869 12.0427 0.63904 12.4519C1.04821 12.861 1.60316 13.0909 2.18182 13.0909H10.3636V12.3589C10.2703 12.2433 10.1822 12.1236 10.0996 12H2.18182C1.89249 12 1.61501 11.8851 1.41043 11.6805C1.20584 11.4759 1.09091 11.1984 1.09091 10.9091V2.18182C1.09091 1.89249 1.20584 1.61501 1.41043 1.41043C1.61501 1.20584 1.89249 1.09091 2.18182 1.09091H15.2727C15.5621 1.09091 15.8395 1.20584 16.0441 1.41043C16.2487 1.61501 16.3636 1.89249 16.3636 2.18182V4.87418C16.7607 5.07055 17.1273 5.32145 17.4545 5.61382V2.18182C17.4545 1.60316 17.2247 1.04821 16.8155 0.63904C16.4063 0.229869 15.8514 0 15.2727 0H2.18182Z" fill="#808080"/>
</svg>
