<svg width="19" height="18" viewBox="0 0 19 18" fill="none" xmlns="http://www.w3.org/2000/svg">
<path d="M0 1.12497C0 0.82661 0.118523 0.540469 0.329496 0.329496C0.540469 0.118523 0.82661 0 1.12497 0H3.37491C3.67327 0 3.95941 0.118523 4.17039 0.329496C4.38136 0.540469 4.49988 0.82661 4.49988 1.12497V14.6246C4.49988 14.923 4.38136 15.2091 4.17039 15.4201C3.95941 15.6311 3.67327 15.7496 3.37491 15.7496H1.12497C0.82661 15.7496 0.540469 15.6311 0.329496 15.4201C0.118523 15.2091 0 14.923 0 14.6246V1.12497ZM3.37491 1.12497H1.12497V14.6246H3.37491V1.12497ZM5.62485 1.12497C5.62485 0.82661 5.74338 0.540469 5.95435 0.329496C6.16532 0.118523 6.45146 0 6.74982 0H8.99977C9.29813 0 9.58427 0.118523 9.79524 0.329496C10.0062 0.540469 10.1247 0.82661 10.1247 1.12497V11.1856L8.99977 12.3106V1.12497H6.74982V14.6246H7.28419C7.26659 14.6823 7.25046 14.7405 7.23581 14.799L6.99732 15.7496H6.74982C6.45146 15.7496 6.16532 15.6311 5.95435 15.4201C5.74338 15.2091 5.62485 14.923 5.62485 14.6246V1.12497ZM15.7496 1.12497V6.7532C15.366 6.7712 14.9846 6.8567 14.6246 7.01082V1.12497H12.3747V8.93564L11.2497 10.0606V1.12497C11.2497 0.82661 11.3682 0.540469 11.5792 0.329496C11.7902 0.118523 12.0763 0 12.3747 0H14.6246C14.923 0 15.2091 0.118523 15.4201 0.329496C15.6311 0.540469 15.7496 0.82661 15.7496 1.12497ZM8.97727 13.9238L14.4109 8.49016C14.8056 8.09572 15.3409 7.87425 15.8989 7.87446C16.4569 7.87467 16.992 8.09655 17.3864 8.49128C17.7809 8.88601 18.0023 9.42126 18.0021 9.97929C18.0019 10.5373 17.78 11.0724 17.3853 11.4668L11.9517 16.8993C11.6352 17.216 11.2385 17.4407 10.8042 17.5495L9.11901 17.9703C8.95145 18.012 8.77593 18.0098 8.60951 17.9636C8.44309 17.9175 8.29143 17.8291 8.16926 17.7071C8.04709 17.585 7.95857 17.4334 7.9123 17.2671C7.86602 17.1007 7.86357 16.9252 7.90517 16.7576L8.32703 15.0724C8.43503 14.6381 8.66002 14.2399 8.97727 13.9249V13.9238Z" fill="#CCCBCB"/>
</svg>
