<svg width="23" height="18" viewBox="0 0 23 18" fill="none" xmlns="http://www.w3.org/2000/svg">
<path d="M11.25 9L2.8575 5.6475L3.375 18H1.125L1.665 5.16375L0 4.5L11.25 0L22.5 4.5L11.25 9ZM11.25 3.375C10.6312 3.375 10.125 3.6225 10.125 3.9375C10.125 4.2525 10.6312 4.5 11.25 4.5C11.8688 4.5 12.375 4.2525 12.375 3.9375C12.375 3.6225 11.8688 3.375 11.25 3.375ZM11.25 10.125L17.5162 7.61625C18.315 8.67375 18.8663 9.945 19.0463 11.3287C18.7088 11.2837 18.36 11.25 18 11.25C15.1313 11.25 12.6225 12.7912 11.25 15.0862C10.5533 13.9171 9.56502 12.9489 8.38179 12.2764C7.19856 11.6039 5.86097 11.2503 4.5 11.25C4.14 11.25 3.79125 11.2837 3.45375 11.3287C3.63375 9.945 4.185 8.67375 4.98375 7.61625L11.25 10.125Z" fill="white"/>
</svg>
