<svg width="21" height="19" viewBox="0 0 21 19" fill="none" xmlns="http://www.w3.org/2000/svg">
<path fill-rule="evenodd" clip-rule="evenodd" d="M3.75268 0H2.25161V7.50536H3.75268V0ZM12.9092 7.50536H8.10579L7.50536 6.67977V5.1787L8.10579 4.50322H12.9092L13.5096 5.25375V6.75483L12.9092 7.50536ZM5.40386 12.0086H0.600429L0 11.258V9.75697L0.600429 9.00643H5.40386L6.00429 9.75697V11.258L5.40386 12.0086ZM11.258 0H9.75697V3.00214H11.258V0ZM9.75697 9.00643H11.258V18.0129H9.75697V9.00643ZM3.75268 13.5097H2.25161V18.0129H3.75268V13.5097ZM15.6111 13.5097H20.3996L21 12.7591V11.3331L20.3996 10.5826H15.6111L15.0107 11.3331V12.7591L15.6111 13.5097ZM18.7634 0H17.2623V9.00643H18.7634V0ZM17.2623 15.0107H18.7634V18.0129H17.2623V15.0107Z" fill="#D2D2D2"/>
</svg>
