<svg width="18" height="15" viewBox="0 0 18 15" fill="none" xmlns="http://www.w3.org/2000/svg">
<path d="M17.0611 14.0816L9.10189 0.306122C8.98326 0.101403 8.77855 0 8.57191 0C8.36528 0 8.15865 0.101403 8.04194 0.306122L0.0827552 14.0816C-0.152576 14.4911 0.142066 15 0.61273 15H16.5311C17.0018 15 17.2964 14.4911 17.0611 14.0816ZM7.95967 5.66327C7.95967 5.57908 8.02855 5.5102 8.11273 5.5102H9.0311C9.11528 5.5102 9.18416 5.57908 9.18416 5.66327V9.18367C9.18416 9.26786 9.11528 9.33673 9.0311 9.33673H8.11273C8.02855 9.33673 7.95967 9.26786 7.95967 9.18367V5.66327ZM8.57191 12.398C8.33159 12.3931 8.10277 12.2941 7.93455 12.1224C7.76632 11.9508 7.6721 11.72 7.6721 11.4796C7.6721 11.2392 7.76632 11.0084 7.93455 10.8367C8.10277 10.665 8.33159 10.5661 8.57191 10.5612C8.81223 10.5661 9.04106 10.665 9.20928 10.8367C9.3775 11.0084 9.47172 11.2392 9.47172 11.4796C9.47172 11.72 9.3775 11.9508 9.20928 12.1224C9.04106 12.2941 8.81223 12.3931 8.57191 12.398V12.398Z" fill="#FFA929"/>
</svg>
